<svg width="90" height="32" viewBox="0 0 90 32" fill="none" xmlns="http://www.w3.org/2000/svg">
<path d="M6.6264 7.84723C6.6264 6.55127 5.56342 5.63391 3.32097 5.63391H2.76764V2.9255L5.94201 3.58076V2.64883H1.39887V10.2207H2.95694C5.44693 10.2353 6.6264 9.20144 6.6264 7.84723ZM2.76764 5.95426H3.01518C4.44219 5.95426 5.12657 6.55127 5.12657 7.96372C5.12657 9.31793 4.44219 9.91494 3.01518 9.91494H2.76764V5.95426ZM9.04358 8.02197H11.5918L12.2762 10.2353H13.7032L11.2132 2.5469H11.155L10.0337 2.9255L7.602 10.2353H8.47568L9.04358 8.02197ZM10.1648 3.58076H10.223L11.4899 7.68706H9.13094L10.1648 3.58076ZM15.8583 10.2353L17.3581 6.88618H17.4163L19.3384 10.2353H20.7655L18.4648 6.23092L20.4014 2.64883H19.6005L18.2318 5.79408H18.1735L16.4262 2.64883H14.9992L17.1834 6.43478L14.9409 10.2207H15.8583V10.2353ZM23.6486 7.46864H23.8379C26.1968 7.46864 27.5074 6.33285 27.5074 4.94953C27.5074 3.58076 26.4444 2.64883 24.2747 2.64883H22.2798V10.2207H23.6486V7.46864ZM23.6486 2.98374H23.8961C25.2649 2.98374 26.0803 3.58076 26.0803 5.03689C26.0803 6.44934 25.2649 7.14829 23.8961 7.14829H23.6486V2.98374ZM28.9198 9.14319L29.4149 10.3809C30.4051 10.1042 30.973 9.62372 32.1524 7.2939L34.5114 2.63427H33.5794L32.0796 6.42022H32.0214L29.8372 2.63427H28.2791L31.3224 7.83267C30.7691 8.8374 30.0993 9.04126 28.9198 9.14319ZM44.0636 2.64883H42.6948V9.90038H40.6999V2.64883H39.3312V9.90038H37.3363V2.64883H35.9675V10.2207H44.0636V2.64883ZM50.6162 3.78462H50.6744V10.2207H52.0432V2.64883H50.6744L47.8787 9.08495H47.8204V2.64883H46.4517V10.2207H47.8204L50.6162 3.78462ZM55.7709 6.44934H58.5667V10.2353H59.9355V2.64883H58.5667V6.11443H55.7709V2.64883H54.4021V10.2207H55.7709V6.44934ZM65.1047 10.3372C67.0996 10.3372 67.5947 8.28407 67.5947 8.28407L67.2161 8.18214C67.2161 8.18214 66.721 9.91494 65.3523 9.91494C64.3621 9.91494 63.4302 9.09951 63.4302 6.44934C63.4302 3.639 64.3039 2.88181 65.2358 2.88181C65.7891 2.88181 66.357 3.36234 66.357 4.61461V5.05145H67.5947V4.51269C67.5947 3.31866 66.721 2.56147 65.3523 2.56147C63.6049 2.56147 61.9886 3.97392 61.9886 6.62408C62.0032 9.14319 63.3719 10.3372 65.1047 10.3372ZM74.9336 10.2353L72.2543 5.31356C72.5601 4.11953 72.8805 3.52251 72.997 3.52251C73.128 3.52251 73.1863 3.58076 73.1863 3.90111V4.38163H74.424V3.5662C74.424 2.80901 74.1182 2.53234 73.6814 2.53234C72.9387 2.53234 72.2544 3.5662 71.57 6.09987H70.8856V2.64883H69.5168V10.2207H70.8856V6.43478H71.3807L73.4338 10.2207H74.9336V10.2353ZM77.875 9.09951H77.8168V2.64883H76.448V10.2207H77.8168L80.6126 3.78462H80.6708V10.2207H82.0396V2.64883H80.6708L77.875 9.09951ZM88.6359 2.64883L85.8401 9.08495H85.7818V2.64883H84.4131V10.2207H85.7818L88.5776 3.78462H88.6359V10.2207H90.0046V2.64883H88.6359ZM87.1506 2.00813C88.5194 2.00813 89.0727 0.930595 89.0727 0.930595L88.6941 0.77042C88.199 1.62954 87.2671 1.62954 87.2671 1.62954H87.2089V0.755859H85.5925C85.5925 1.51305 86.1459 2.00813 87.1506 2.00813ZM2.89869 21.0107H4.26746V13.7009L6.5099 14.5163V13.4388H0.65625V14.5163L2.89869 13.7009V21.0107ZM12.713 14.2979V13.4388H7.9806V21.0107H12.713V20.1952L9.34936 20.734V17.1665L12.3344 17.3849V16.686L9.34936 16.9044V13.7155L12.713 14.2979ZM15.4069 18.8119H17.9551L18.6395 21.0252H20.0665L17.5765 13.3369H17.5183L16.3971 13.7155L13.9653 21.0252H14.839L15.4069 18.8119ZM16.5281 14.3562H16.5863L17.8532 18.4624H15.4942L16.5281 14.3562ZM25.9202 13.4388H20.0665V14.5163L22.309 13.7009V21.0107H23.6777V13.7009L25.9202 14.5163V13.4388ZM29.3712 13.4388H27.3763V21.0107H28.7451V18.244H28.9344C31.2933 18.244 32.6038 17.1082 32.6038 15.7249C32.6184 14.3562 31.5554 13.4388 29.3712 13.4388ZM29.0072 17.9237H28.7596V13.7591H29.0072C30.3759 13.7591 31.1914 14.3562 31.1914 15.8123C31.1768 17.2247 30.3759 17.9237 29.0072 17.9237ZM36.5208 13.3223L35.3996 13.7009L32.9679 21.0107H33.8415L34.3949 18.7974H36.9431L37.6275 21.0107H39.0545L36.5645 13.3223H36.5208ZM34.4968 18.4624L35.5307 14.3562H35.5889L36.8557 18.4624H34.4968ZM42.0978 14.6328C41.9231 17.9382 41.1076 19.3944 39.8554 19.7147L40.2922 21.1272C41.5299 20.8505 42.3454 19.2924 42.5347 15.1716L42.5929 13.7591H44.515V21.0107H45.8838V13.4388H42.1561L42.0978 14.6328ZM53.3537 18.6372C53.3537 17.3412 52.3636 16.4675 50.1211 16.4675H49.5678V13.4388H48.199V21.0107H49.7571C52.1743 21.0107 53.3537 19.9914 53.3537 18.6372ZM49.8153 20.6903H49.5678V16.7879H49.8153C51.2423 16.7879 51.9267 17.3849 51.9267 18.7391C51.9267 20.0933 51.2423 20.6903 49.8153 20.6903ZM60.4888 21.0107V13.4388H59.12V16.9044H56.3242V13.4388H54.9555V21.0107H56.3242V17.2247H59.12V21.0107H60.4888ZM69.8226 13.4388H68.4538V21.0107H69.8226V13.4388ZM67.6967 18.6372C67.6967 17.3412 66.7065 16.4675 64.464 16.4675H64.1582V13.4388H62.7895V21.0107H64.1C66.5172 21.0107 67.6967 19.9914 67.6967 18.6372ZM64.2165 20.6903H64.1582V16.7879H64.2165C65.5853 16.7879 66.2696 17.3849 66.2696 18.7391C66.2696 20.0933 65.5853 20.6903 64.2165 20.6903ZM73.5649 19.8749H73.5066V13.4388H72.1379V21.0107H73.5066L76.3024 14.5746H76.3607V21.0107H77.7294V13.4388H76.3607L73.5649 19.8749ZM74.9336 11.5458H73.3173C73.3173 12.303 73.8707 12.7835 74.8754 12.7835C76.2442 12.7835 76.7975 11.706 76.7975 11.706L76.4189 11.5458C75.9238 12.4049 74.9919 12.4049 74.9919 12.4049H74.9336V11.5458ZM5.33044 29.7329H5.27219L2.69484 24.2142H1.39887V31.7861H2.1415L1.70466 25.4519H1.76291L4.74798 31.888H4.87904L7.42727 25.4519H7.48551V31.7861H8.85428V24.2142H7.48551L5.33044 29.7329ZM13.9944 28.0001H13.9216L11.7374 24.2142H10.1794L13.2227 29.4126C12.6548 30.4027 11.985 30.6066 10.7909 30.7085L11.286 31.9463C12.2762 31.6696 12.8441 31.1891 14.0236 28.8592L16.3825 24.1996H15.4506L13.9944 28.0001ZM20.5907 27.7963V27.738C21.144 27.6507 22.5128 26.9663 22.5128 25.7868C22.5128 24.7966 21.7119 24.1122 19.9646 24.1122C18.523 24.1122 17.4746 24.7675 17.4746 24.7675L18.0279 26.4566H18.159C18.3337 25.0296 19.0763 24.4472 19.8335 24.4472C20.5325 24.4472 21.0712 24.8549 21.0712 25.9033C21.0712 27.0973 20.4451 27.6361 19.5132 27.6361L18.523 27.3594V28.2185L19.5132 27.9419H19.6442C20.7072 27.9419 21.3188 28.4807 21.3188 29.7329C21.3188 30.9706 20.6344 31.5677 19.7025 31.5677C18.8288 31.5677 18.392 31.1891 18.392 30.2717V29.5728H17.1542V30.1698C17.1542 31.2473 17.8969 31.9026 19.6442 31.9026C21.6391 31.9026 22.7604 30.927 22.7604 29.5728C22.7749 28.4952 21.9595 27.7963 20.5907 27.7963ZM24.5805 31.8006H29.313V30.9852L25.9493 31.524V27.9564L28.9344 28.1749V27.4759L25.9493 27.6943V24.4908L29.313 25.0879V24.2287H24.5805V31.8006ZM32.1379 22.3212C32.1379 23.0784 32.6912 23.5589 33.6959 23.5589C35.0647 23.5589 35.6326 22.4814 35.6326 22.4814L35.254 22.3212C34.7589 23.1803 33.827 23.1803 33.827 23.1803H33.7687V22.3212H32.1379ZM32.4 30.6649H32.3417V24.2287H30.9584V31.8006H32.3272L35.1229 25.3645H35.1812V31.8006H36.5499V24.2287H35.1812L32.4 30.6649ZM40.9766 28.0584L42.2143 29.1359L43.452 28.0584L42.2143 26.9808L40.9766 28.0584ZM47.1506 25.0296V25.1898L48.3301 25.0879V31.8006H49.6988V24.1122H49.5678L47.1506 25.0296ZM55.0865 27.4322C55.5816 27.2429 56.6446 26.6459 56.6446 25.6849C56.6446 24.8258 55.8292 24.1122 54.4021 24.1122C52.7858 24.1122 51.9122 24.8694 51.9122 25.7868C51.9122 26.7624 52.6548 27.3594 53.4702 27.84C53.0334 28.0001 51.4753 28.6991 51.4753 30.0533C51.4753 31.1308 52.349 31.888 54.3439 31.888C56.3388 31.888 57.329 31.0289 57.329 29.8931C57.3144 28.7573 56.1932 28.0875 55.0865 27.4322ZM53.2809 25.4665C53.2809 24.8112 53.7178 24.4326 54.4021 24.4326C55.1448 24.4326 55.6399 24.8694 55.6399 25.5684C55.6399 26.4275 55.0865 26.9808 54.7371 27.2284C53.9653 26.7624 53.2809 26.2819 53.2809 25.4665ZM54.3293 31.5822C53.3974 31.5822 52.713 30.9852 52.713 30.0678C52.713 28.7719 53.7614 28.0147 53.7614 28.0147C54.7225 28.568 55.8874 29.0485 55.8874 30.1843C55.8874 31.0434 55.2613 31.5822 54.3293 31.5822ZM61.0858 24.1122C59.4695 24.1122 58.3483 25.1898 58.3483 26.7624C58.3483 28.1749 59.2802 28.9757 60.649 28.9757C61.8867 28.9757 62.4546 28.437 62.4546 28.437C62.207 30.4319 60.8383 31.3055 59.1491 31.524V31.9026C62.1342 31.5822 63.9398 29.8494 63.9398 27.4322C63.9544 25.1898 62.7021 24.1122 61.0858 24.1122ZM62.5128 27.9564C62.5128 27.9564 61.8867 28.6117 61.0858 28.6117C60.3432 28.6117 59.7753 28.1312 59.7753 26.6168C59.7753 24.9422 60.3286 24.4472 61.013 24.4472C61.7556 24.4472 62.5128 25.1024 62.5128 27.5342V27.9564ZM69.9391 24.2142H68.8761L65.2067 29.0777V29.1359L65.6144 29.8349H68.5703V31.7861H69.9391V29.8349H71.0603V29.1359H69.9391V24.2142ZM68.5703 29.1359H65.6435V29.0777L68.5121 25.2917H68.5703V29.1359Z" fill="white"/>
</svg>
