<svg width="101" height="53" viewBox="0 0 101 53" fill="none" xmlns="http://www.w3.org/2000/svg">
<path d="M93.0761 11.6491L86.0575 24.8708H85.7808L78.7477 11.6491H71.3942V40.7863H72.996V14.9836H73.229L82.8103 33.0106H83.5384L93.1198 14.9836H93.3527V40.7863H100.91V11.6491H93.0761ZM25.4532 41.66L41.3979 11.6491H25.4532V41.66ZM67.6957 41.66V11.6491H51.751L67.6957 41.66ZM45.7808 52.4499H47.3826V0H45.7808V52.4499ZM9.84346 22.8904H7.55733V12.9013L19.9199 15.8136V11.6491H0V40.7863H8.24172C17.6338 40.7863 22.206 36.6218 22.206 31.4234C22.206 26.4288 18.3182 22.8904 9.84346 22.8904ZM8.24172 39.3447H7.55733V24.3466H8.24172C11.9112 24.3466 14.1973 26.4288 14.1973 31.8456C14.1973 37.2625 11.9112 39.3447 8.24172 39.3447Z" fill="white"/>
</svg>
