<svg xmlns="http://www.w3.org/2000/svg" height="20" viewBox="0 -960 960 960" width="20">
    <path fill="white" d="M248.498-277.807q54.772-36.346 111.118-53.462Q415.962-348.384 480-348.384q64.038 0 120.384 17.115 56.346 17.116 111.346 53.462 38.424-42.115 57.328-93.525 18.904-51.41 18.904-108.674 0-128.361-89.865-218.158-89.864-89.798-218.327-89.798-128.462 0-218.097 89.798-89.635 89.797-89.635 218.158 0 57.264 18.904 108.674 18.904 51.41 57.556 93.525Zm231.624-141.809q-55.276 0-93.891-38.493t-38.615-93.769q0-55.276 38.493-93.891t93.769-38.615q55.276 0 93.891 38.493t38.615 93.769q0 55.276-38.493 93.891t-93.769 38.615Zm.154 295.538q-73.528 0-138.514-27.725-64.985-27.724-113.623-76.461-48.638-48.737-76.349-113.609-27.712-64.872-27.712-138.682 0-73.89 27.725-138.279 27.724-64.389 76.461-113.027 48.737-48.638 113.609-76.349 64.872-27.712 138.682-27.712 73.89 0 138.279 27.725 64.389 27.724 113.027 76.461 48.638 48.737 76.349 113.262 27.712 64.526 27.712 138.198 0 73.528-27.725 138.514-27.724 64.985-76.461 113.623-48.737 48.638-113.262 76.349-64.526 27.712-138.198 27.712Zm-.288-47.96q52.358 0 102.57-18.02 50.212-18.019 93.52-52.327-44.308-27.654-93.354-42.846-49.047-15.193-102.652-15.193-53.606 0-103.762 14.154-50.157 14.154-92.388 43.885 43.308 34.308 93.508 52.327 50.201 18.02 102.558 18.02ZM480-467.576q34.346 0 59.385-25.039T564.424-552q0-34.346-25.039-59.385T480-636.424q-34.346 0-59.385 25.039T395.576-552q0 34.346 25.039 59.385T480-467.576ZM480-552Zm0 310.769Z"/></svg>