<svg width="17" height="17" viewBox="0 0 26 17" fill="none" xmlns="http://www.w3.org/2000/svg">
<mask id="path-1-inside-1_1278_6576" fill="white">
<path fill-rule="evenodd" clip-rule="evenodd" d="M0.460938 8.54357C2.7316 3.84807 7.54058 0.609375 13.106 0.609375C18.6714 0.609375 23.4804 3.84807 25.7511 8.54357C23.4804 13.2391 18.6714 16.4778 13.106 16.4778C7.54058 16.4778 2.7316 13.2391 0.460938 8.54357Z"/>
</mask>
<path d="M0.460938 8.54357L-0.837806 7.91552L-1.14152 8.54357L-0.837806 9.17162L0.460938 8.54357ZM25.7511 8.54357L27.0498 9.17162L27.3535 8.54357L27.0498 7.91552L25.7511 8.54357ZM1.75968 9.17162C3.79865 4.95525 8.11467 2.052 13.106 2.052V-0.833255C6.96649 -0.833255 1.66456 2.74089 -0.837806 7.91552L1.75968 9.17162ZM13.106 2.052C18.0973 2.052 22.4134 4.95525 24.4523 9.17162L27.0498 7.91552C24.5474 2.74089 19.2455 -0.833255 13.106 -0.833255V2.052ZM24.4523 7.91552C22.4134 12.1319 18.0973 15.0351 13.106 15.0351V17.9204C19.2455 17.9204 24.5474 14.3462 27.0498 9.17162L24.4523 7.91552ZM13.106 15.0351C8.11467 15.0351 3.79864 12.1319 1.75968 7.91552L-0.837806 9.17162C1.66456 14.3462 6.96649 17.9204 13.106 17.9204V15.0351Z" fill="white" mask="url(#path-1-inside-1_1278_6576)"/>
<circle cx="13.1074" cy="8.54487" r="2.94074" stroke="white" stroke-width="1.44263"/>
</svg>
